<svg width="84" height="84" viewBox="0 0 84 84" fill="none" xmlns="http://www.w3.org/2000/svg">
<path d="M42.0003 0.174805C18.8044 0.174805 0 18.9792 0 42.1751C0 62.979 15.1419 80.2082 34.9954 83.5445V50.9374H24.8638V39.2035H34.9954V30.5513C34.9954 20.5123 41.127 15.0417 50.0838 15.0417C54.3735 15.0417 58.06 15.3613 59.1302 15.5021V25.9955L52.918 25.9985C48.0481 25.9985 47.1092 28.3123 47.1092 31.7087V39.1975H58.7294L57.2138 50.9314H47.1092V83.8251C67.8896 81.2959 84 63.6279 84 42.163C84 18.9792 65.1956 0.174805 42.0003 0.174805Z" fill="#F0EAE0"/>
</svg>
