<svg width="512" height="512" viewBox="0 0 512 512" fill="none" xmlns="http://www.w3.org/2000/svg">
<g clip-path="url(#clip0)">
<path d="M256.085 124.544C183.488 124.544 124.715 183.381 124.715 255.915C124.715 328.512 183.552 387.285 256.085 387.285C328.683 387.285 387.456 328.448 387.456 255.915C387.456 183.317 328.619 124.544 256.085 124.544V124.544ZM256.085 341.184C208.96 341.184 170.816 303.019 170.816 255.915C170.816 208.811 208.981 170.645 256.085 170.645C303.189 170.645 341.355 208.811 341.355 255.915C341.376 303.019 303.211 341.184 256.085 341.184V341.184Z" fill="#F0EAE0"/>
<path d="M361.557 1.62143C314.453 -0.575901 197.781 -0.469234 150.635 1.62143C109.205 3.56277 72.6613 13.5681 43.2 43.0294C-6.03734 92.2668 0.255996 158.613 0.255996 255.915C0.255996 355.499 -5.29067 420.309 43.2 468.8C92.6293 518.208 159.936 511.744 256.085 511.744C354.731 511.744 388.779 511.808 423.659 498.304C471.083 479.893 506.88 437.504 510.379 361.365C512.597 314.24 512.469 197.589 510.379 150.443C506.155 60.5654 457.92 6.05877 361.557 1.62143V1.62143ZM436.117 436.224C403.84 468.501 359.061 465.621 255.467 465.621C148.8 465.621 106.027 467.2 74.816 435.904C38.8693 400.128 45.376 342.677 45.376 255.573C45.376 137.707 33.28 52.8214 151.573 46.7628C178.752 45.8028 186.752 45.4828 255.168 45.4828L256.128 46.1228C369.813 46.1228 459.008 34.2188 464.363 152.491C465.579 179.477 465.856 187.584 465.856 255.893C465.835 361.323 467.84 404.352 436.117 436.224V436.224Z" fill="#F0EAE0"/>
<path d="M392.661 150.059C409.616 150.059 423.36 136.314 423.36 119.36C423.36 102.406 409.616 88.6614 392.661 88.6614C375.707 88.6614 361.963 102.406 361.963 119.36C361.963 136.314 375.707 150.059 392.661 150.059Z" fill="#F0EAE0"/>
</g>
<defs>
<clipPath id="clip0">
<rect width="512" height="512" fill="white"/>
</clipPath>
</defs>
</svg>
