<svg width="476" height="476" viewBox="0 0 476 476" fill="none" xmlns="http://www.w3.org/2000/svg">
<path d="M396.236 105.664C417.323 105.64 437.54 97.2516 452.451 82.3401C467.362 67.4287 475.749 47.2115 475.772 26.124V7.228C475.773 6.3086 475.592 5.39811 475.24 4.54859C474.889 3.69907 474.373 2.92719 473.723 2.27708C473.073 1.62696 472.301 1.11137 471.451 0.759771C470.602 0.408174 469.691 0.227472 468.772 0.227998H7.22801C6.30861 0.227472 5.39812 0.408174 4.5486 0.759771C3.69908 1.11137 2.9272 1.62696 2.27709 2.27708C1.62697 2.92719 1.11138 3.69907 0.759779 4.54859C0.408182 5.39811 0.22748 6.3086 0.228006 7.228V26.124C0.251297 47.2115 8.63831 67.4287 23.549 82.3401C38.4598 97.2516 58.6765 105.64 79.764 105.664H198V150.944H95.504C81.7058 150.905 68.3453 155.784 57.8199 164.706C47.2944 173.629 40.293 186.01 38.072 199.628L0.320005 427.024C0.153925 428.027 0.208127 429.053 0.478844 430.033C0.749561 431.012 1.2303 431.921 1.88766 432.696C2.54502 433.471 3.36324 434.094 4.28546 434.52C5.20767 434.947 6.21178 435.168 7.22801 435.168H31.008V468.768C31.0075 469.687 31.1882 470.598 31.5398 471.447C31.8914 472.297 32.407 473.069 33.0571 473.719C33.7072 474.369 34.4791 474.885 35.3286 475.236C36.1781 475.588 37.0886 475.769 38.008 475.768H438C438.919 475.769 439.83 475.588 440.679 475.236C441.529 474.885 442.301 474.369 442.951 473.719C443.601 473.069 444.117 472.297 444.468 471.447C444.82 470.598 445.001 469.687 445 468.768V435.168H468.78C469.796 435.168 470.8 434.947 471.723 434.52C472.645 434.094 473.463 433.471 474.12 432.696C474.778 431.921 475.258 431.012 475.529 430.033C475.8 429.053 475.854 428.027 475.688 427.024L437.936 199.628C435.715 186.008 428.712 173.626 418.185 164.704C407.658 155.781 394.296 150.903 380.496 150.944H278.02V105.664H396.236ZM14.228 26.124V14.228H461.772V26.124C461.756 43.5007 454.846 60.1612 442.56 72.4488C430.273 84.7364 413.613 91.6471 396.236 91.664H79.764C62.3873 91.6471 45.7272 84.7364 33.4404 72.4488C21.1535 60.1612 14.2439 43.5007 14.228 26.124ZM430.992 461.772H44.992V435.168H430.992V461.772ZM424.116 201.92L460.516 421.168H15.484L51.884 201.92C53.5705 191.577 58.888 182.173 66.8823 175.396C74.8765 168.62 85.0241 164.914 95.504 164.944H380.496C390.976 164.914 401.124 168.62 409.118 175.396C417.112 182.173 422.429 191.577 424.116 201.92ZM264.02 150.944H212V105.664H264.04L264.02 150.944Z" fill="#C86270"/>
<path d="M135.256 293.056C135.255 313.377 141.28 333.242 152.57 350.139C163.859 367.035 179.905 380.205 198.679 387.982C217.453 395.759 238.111 397.794 258.042 393.83C277.973 389.866 296.28 380.081 310.65 365.712C325.019 351.344 334.805 333.036 338.769 313.106C342.734 293.175 340.7 272.517 332.923 253.742C325.147 234.968 311.978 218.922 295.082 207.632C278.186 196.342 258.321 190.316 238 190.316C210.761 190.347 184.646 201.181 165.384 220.441C146.123 239.702 135.288 265.817 135.256 293.056ZM326.456 286.056H314.728C312.871 286.056 311.091 286.793 309.778 288.106C308.465 289.419 307.728 291.199 307.728 293.056C307.728 294.912 308.465 296.693 309.778 298.006C311.091 299.318 312.871 300.056 314.728 300.056H326.44C324.749 321.091 315.626 340.838 300.704 355.76C285.782 370.682 266.035 379.805 245 381.496V369.784C245 367.927 244.262 366.147 242.95 364.834C241.637 363.521 239.857 362.784 238 362.784C236.143 362.784 234.363 363.521 233.05 364.834C231.737 366.147 231 367.927 231 369.784V381.496C209.965 379.805 190.218 370.682 175.296 355.76C160.374 340.838 151.251 321.091 149.56 300.056H161.272C163.129 300.056 164.909 299.318 166.222 298.006C167.534 296.693 168.272 294.912 168.272 293.056C168.272 291.199 167.534 289.419 166.222 288.106C164.909 286.793 163.129 286.056 161.272 286.056H149.56C151.252 265.021 160.376 245.276 175.298 230.354C190.22 215.432 209.965 206.308 231 204.616V216.328C231 218.185 231.737 219.965 233.05 221.278C234.363 222.59 236.143 223.328 238 223.328C239.857 223.328 241.637 222.59 242.95 221.278C244.262 219.965 245 218.185 245 216.328V204.616C266.035 206.308 285.78 215.432 300.702 230.354C315.624 245.276 324.748 265.021 326.44 286.056H326.456Z" fill="#C86270"/>
<path d="M247.152 274C244.303 272.6 241.174 271.865 238 271.848C233.807 271.848 229.708 273.091 226.222 275.421C222.736 277.75 220.018 281.061 218.414 284.935C216.809 288.809 216.389 293.072 217.207 297.184C218.025 301.296 220.044 305.074 223.009 308.039C225.974 311.004 229.752 313.023 233.864 313.841C237.976 314.659 242.239 314.239 246.113 312.634C249.987 311.03 253.298 308.312 255.627 304.826C257.957 301.34 259.2 297.241 259.2 293.048C259.183 289.874 258.444 286.746 257.04 283.9L284.612 256.324C285.262 255.674 285.777 254.903 286.129 254.054C286.481 253.205 286.662 252.295 286.662 251.376C286.662 250.457 286.481 249.547 286.129 248.698C285.777 247.849 285.262 247.078 284.612 246.428C283.962 245.778 283.191 245.263 282.342 244.911C281.493 244.559 280.583 244.378 279.664 244.378C278.745 244.378 277.835 244.559 276.986 244.911C276.137 245.263 275.366 245.778 274.716 246.428L247.152 274ZM238 300.264C236.576 300.264 235.184 299.842 234 299.051C232.816 298.259 231.893 297.135 231.348 295.819C230.803 294.504 230.661 293.056 230.938 291.659C231.216 290.263 231.902 288.98 232.909 287.973C233.916 286.966 235.199 286.28 236.595 286.002C237.992 285.725 239.44 285.867 240.755 286.412C242.071 286.957 243.195 287.88 243.987 289.064C244.778 290.248 245.2 291.64 245.2 293.064C245.2 294.974 244.441 296.805 243.091 298.155C241.741 299.505 239.91 300.264 238 300.264Z" fill="#C86270"/>
<path d="M142.256 30.048H69.456C68.5367 30.048 67.6265 30.2291 66.7772 30.5808C65.9279 30.9326 65.1563 31.4482 64.5062 32.0983C63.8562 32.7483 63.3406 33.5199 62.9888 34.3692C62.6371 35.2185 62.456 36.1288 62.456 37.048C62.456 37.9673 62.6371 38.8775 62.9888 39.7268C63.3406 40.5761 63.8562 41.3477 64.5062 41.9978C65.1563 42.6478 65.9279 43.1634 66.7772 43.5152C67.6265 43.8669 68.5367 44.048 69.456 44.048H142.256C144.113 44.048 145.893 43.3105 147.206 41.9977C148.518 40.685 149.256 38.9045 149.256 37.048C149.256 35.1915 148.518 33.411 147.206 32.0983C145.893 30.7855 144.113 30.048 142.256 30.048Z" fill="#C86270"/>
<path d="M193.576 30.048H172.16C170.304 30.048 168.523 30.7855 167.21 32.0983C165.898 33.411 165.16 35.1915 165.16 37.048C165.16 38.9045 165.898 40.685 167.21 41.9977C168.523 43.3105 170.304 44.048 172.16 44.048H193.576C194.495 44.048 195.406 43.8669 196.255 43.5152C197.104 43.1634 197.876 42.6478 198.526 41.9978C199.176 41.3477 199.691 40.5761 200.043 39.7268C200.395 38.8775 200.576 37.9673 200.576 37.048C200.576 36.1288 200.395 35.2185 200.043 34.3692C199.691 33.5199 199.176 32.7483 198.526 32.0983C197.876 31.4482 197.104 30.9326 196.255 30.5808C195.406 30.2291 194.495 30.048 193.576 30.048Z" fill="#C86270"/>
</svg>
