<svg width="276" height="276" viewBox="0 0 276 276" fill="none" xmlns="http://www.w3.org/2000/svg">
<path d="M87.4 165.14V32.2C87.4 24.3791 81.4209 18.4 73.6 18.4H64.4C56.5791 18.4 50.6 24.3791 50.6 32.2V165.14C29.9 175.721 21.6209 200.56 31.7395 220.8C41.8604 241.04 66.7 249.779 87.4 239.66C108.1 229.54 116.379 204.7 106.26 184C102.121 176.179 95.6791 169.279 87.4 165.14V165.14ZM59.8 32.2C59.8 29.4396 61.6395 27.6 64.4 27.6H73.6C76.3604 27.6 78.2 29.4396 78.2 32.2V161.921C72.2209 160.54 65.7791 160.54 59.8 161.921V32.2ZM69 234.6C51.0604 234.6 36.8 220.34 36.8 202.4C36.8 184.46 51.0604 170.2 69 170.2C86.9395 170.2 101.2 184.46 101.2 202.4C101.2 220.34 86.9395 234.6 69 234.6Z" fill="#C86270"/>
<path d="M234.6 143.521L211.6 130.64V32.2C211.6 24.3791 205.621 18.4 197.8 18.4H188.6C180.779 18.4 174.8 24.3791 174.8 32.2V130.64L151.8 143.521C140.3 149.96 133.86 162.379 135.24 175.721L145.821 264.04C146.74 270.94 152.721 276 159.621 276H226.321C233.221 276 239.2 270.94 240.121 264.04L250.7 175.721C252.54 162.379 246.1 149.5 234.6 143.521V143.521ZM166.521 179.86C166.06 177.56 168.36 175.26 170.66 174.8H171.121H215.279C218.04 174.8 219.879 176.64 219.879 179.4V179.86L212.06 266.8H174.34L166.521 179.86ZM241.5 174.34L230.921 262.66C230.46 264.96 228.621 266.8 226.321 266.8H221.26L229.079 180.779C229.54 172.96 224.021 166.521 216.66 165.6C216.2 165.6 215.74 165.6 215.279 165.6H171.121C163.3 165.6 157.321 171.579 157.321 179.4V180.779L165.14 266.8H160.079C157.779 266.8 155.94 264.96 155.479 262.66L144.9 174.34C143.979 165.14 148.579 155.94 156.4 151.34L184 136.16V32.2C184 29.4396 185.84 27.6 188.6 27.6H197.8C200.56 27.6 202.4 29.4396 202.4 32.2V136.16L230 151.34C238.279 155.94 242.879 165.14 241.5 174.34V174.34Z" fill="#C86270"/>
<path d="M262.2 0H13.8C5.9791 0 0 5.9791 0 13.8V36.8H41.4V27.6H9.2V13.8C9.2 11.0396 11.0396 9.2 13.8 9.2H262.2C264.96 9.2 266.8 11.0396 266.8 13.8V27.6H220.8V36.8H276V13.8C276 5.9791 270.021 0 262.2 0Z" fill="#C86270"/>
<path d="M96.6 27.6H165.6V36.8H96.6V27.6Z" fill="#C86270"/>
<path d="M69 179.4C56.1209 179.4 46 189.521 46 202.4H55.2C55.2 194.579 61.1791 188.6 69 188.6C76.8209 188.6 82.8 194.579 82.8 202.4H92C92 189.521 81.8791 179.4 69 179.4Z" fill="#C86270"/>
</svg>
