<svg width="121" height="121" viewBox="0 0 121 121" fill="none" xmlns="http://www.w3.org/2000/svg">
<path d="M40.2717 89.4347V89.9347H40.7717H80.228H80.2283H80.7283V89.4347V65.7608V65.2608H80.2283H40.7717H40.2717V65.7608V89.4347ZM36.826 58.3696H84.1738C86.0766 58.3696 87.6195 59.9123 87.6195 61.8151V93.3802C87.6195 95.2832 86.0766 96.8259 84.1738 96.8259H36.826C34.923 96.8259 33.3803 95.283 33.3803 93.3802V61.8153C33.3803 59.9123 34.9232 58.3696 36.826 58.3696Z" fill="#C86270" stroke="white"/>
<path d="M91.5652 26.3042V26.4709L91.6652 26.6042L100.346 38.1781C102.316 40.8056 103.402 44.0635 103.402 47.3478V105.217C103.402 113.644 96.5459 120.5 88.1195 120.5H32.8803C24.4539 120.5 17.5976 113.644 17.5976 105.217V47.3478C17.5976 44.0635 18.6836 40.8053 20.6542 38.1781L20.2542 37.8781L20.6542 38.1781L29.3345 26.6042L29.4345 26.4709V26.3042V22.9952V22.642L29.1017 22.5239C24.7019 20.9634 21.5433 16.7619 21.5433 11.8369C21.5433 5.58619 26.6295 0.5 32.8803 0.5H88.1195C94.37 0.5 99.4564 5.5862 99.4564 11.8369C99.4564 16.7616 96.298 20.9635 91.8981 22.5239L91.5652 22.642V22.9952V26.3042ZM26.1672 42.3127L26.1672 42.3127C25.0847 43.7563 24.489 45.5432 24.489 47.3475V105.217C24.489 109.845 28.2529 113.608 32.8803 113.608H88.1195C92.7469 113.608 96.5107 109.845 96.5107 105.217V47.3475C96.5107 45.5432 95.9151 43.7563 94.8325 42.3127L94.4325 42.6127L94.8325 42.3127L85.3629 29.6867C84.9156 29.0902 84.6738 28.3648 84.6738 27.6194V23.6737V23.1737H84.1738H36.826H36.326V23.6737V27.6194C36.326 28.3645 36.0842 29.0899 35.6369 29.6867C35.6369 29.6867 35.6368 29.6867 35.6368 29.6868L26.1672 42.3127ZM88.1195 7.39122H32.8803C30.4285 7.39122 28.4345 9.38517 28.4345 11.8369C28.4345 14.2887 30.4285 16.2827 32.8803 16.2827H88.1195C90.5713 16.2827 92.5652 14.2887 92.5652 11.8369C92.5652 9.38517 90.5713 7.39122 88.1195 7.39122Z" fill="#C86270" stroke="white"/>
</svg>
